<mxfile host="app.diagrams.net" modified="2023-01-24T18:34:18.540Z" agent="5.0 (Windows NT 10.0; Win64; x64) AppleWebKit/537.36 (KHTML, like Gecko) Chrome/109.0.0.0 Safari/537.36" etag="FJP7xk6qqSEDIPbzi8Op" version="20.8.11" type="github">
  <diagram name="Page-1" id="opkHVkgL4w7dpZbWXiQ7">
    <mxGraphModel dx="1430" dy="775" grid="1" gridSize="10" guides="1" tooltips="1" connect="1" arrows="1" fold="1" page="1" pageScale="1" pageWidth="850" pageHeight="1100" math="0" shadow="0">
      <root>
        <mxCell id="0" />
        <mxCell id="1" parent="0" />
        <mxCell id="t2T1HOfpmzihO6aEGqQB-1" value="" style="swimlane;startSize=0;" vertex="1" parent="1">
          <mxGeometry x="50" y="710" width="200" height="200" as="geometry" />
        </mxCell>
      </root>
    </mxGraphModel>
  </diagram>
</mxfile>
